<mxfile host="app.diagrams.net" modified="2023-10-18T15:32:08.410Z" agent="Mozilla/5.0 (Windows NT 10.0; Win64; x64) AppleWebKit/537.36 (KHTML, like Gecko) Chrome/117.0.0.0 Safari/537.36" etag="tU1eAtOf26IZxC2JTYiv" version="22.0.4" type="device">
  <diagram id="C5RBs43oDa-KdzZeNtuy" name="Page-1">
    <mxGraphModel dx="794" dy="432" grid="1" gridSize="10" guides="1" tooltips="1" connect="1" arrows="1" fold="1" page="1" pageScale="1" pageWidth="827" pageHeight="1169" math="0" shadow="0">
      <root>
        <mxCell id="WIyWlLk6GJQsqaUBKTNV-0" />
        <mxCell id="WIyWlLk6GJQsqaUBKTNV-1" parent="WIyWlLk6GJQsqaUBKTNV-0" />
        <mxCell id="lURMLPrU_MeDdzC3iAlN-5" style="rounded=0;orthogonalLoop=1;jettySize=auto;html=1;exitX=1;exitY=0.5;exitDx=0;exitDy=0;entryX=0;entryY=0.5;entryDx=0;entryDy=0;" edge="1" parent="WIyWlLk6GJQsqaUBKTNV-1" source="WIyWlLk6GJQsqaUBKTNV-3" target="lURMLPrU_MeDdzC3iAlN-0">
          <mxGeometry relative="1" as="geometry" />
        </mxCell>
        <mxCell id="WIyWlLk6GJQsqaUBKTNV-3" value="Start" style="rounded=0;whiteSpace=wrap;html=1;fontSize=12;glass=0;strokeWidth=1;shadow=0;" parent="WIyWlLk6GJQsqaUBKTNV-1" vertex="1">
          <mxGeometry x="160" y="190" width="78" height="50" as="geometry" />
        </mxCell>
        <mxCell id="lURMLPrU_MeDdzC3iAlN-6" style="rounded=0;orthogonalLoop=1;jettySize=auto;html=1;exitX=0.75;exitY=1;exitDx=0;exitDy=0;entryX=0.25;entryY=0;entryDx=0;entryDy=0;" edge="1" parent="WIyWlLk6GJQsqaUBKTNV-1" source="lURMLPrU_MeDdzC3iAlN-0" target="lURMLPrU_MeDdzC3iAlN-11">
          <mxGeometry relative="1" as="geometry">
            <mxPoint x="448" y="300" as="targetPoint" />
          </mxGeometry>
        </mxCell>
        <mxCell id="lURMLPrU_MeDdzC3iAlN-7" value="No" style="edgeLabel;html=1;align=center;verticalAlign=middle;resizable=0;points=[];" vertex="1" connectable="0" parent="lURMLPrU_MeDdzC3iAlN-6">
          <mxGeometry x="0.0871" relative="1" as="geometry">
            <mxPoint x="1" as="offset" />
          </mxGeometry>
        </mxCell>
        <mxCell id="lURMLPrU_MeDdzC3iAlN-10" value="NO" style="edgeLabel;html=1;align=center;verticalAlign=middle;resizable=0;points=[];" vertex="1" connectable="0" parent="lURMLPrU_MeDdzC3iAlN-6">
          <mxGeometry x="0.1136" y="-1" relative="1" as="geometry">
            <mxPoint as="offset" />
          </mxGeometry>
        </mxCell>
        <mxCell id="lURMLPrU_MeDdzC3iAlN-8" style="rounded=0;orthogonalLoop=1;jettySize=auto;html=1;exitX=0.25;exitY=1;exitDx=0;exitDy=0;entryX=0.5;entryY=0;entryDx=0;entryDy=0;" edge="1" parent="WIyWlLk6GJQsqaUBKTNV-1" source="lURMLPrU_MeDdzC3iAlN-0" target="lURMLPrU_MeDdzC3iAlN-15">
          <mxGeometry relative="1" as="geometry">
            <mxPoint x="268" y="310" as="targetPoint" />
          </mxGeometry>
        </mxCell>
        <mxCell id="lURMLPrU_MeDdzC3iAlN-9" value="YES" style="edgeLabel;html=1;align=center;verticalAlign=middle;resizable=0;points=[];" vertex="1" connectable="0" parent="lURMLPrU_MeDdzC3iAlN-8">
          <mxGeometry x="-0.2245" relative="1" as="geometry">
            <mxPoint as="offset" />
          </mxGeometry>
        </mxCell>
        <mxCell id="lURMLPrU_MeDdzC3iAlN-0" value="Are you good with things? Like, physical objects?" style="rounded=0;whiteSpace=wrap;html=1;" vertex="1" parent="WIyWlLk6GJQsqaUBKTNV-1">
          <mxGeometry x="290" y="195" width="150" height="40" as="geometry" />
        </mxCell>
        <mxCell id="lURMLPrU_MeDdzC3iAlN-12" style="rounded=0;orthogonalLoop=1;jettySize=auto;html=1;exitX=0.75;exitY=0;exitDx=0;exitDy=0;entryX=0.5;entryY=1;entryDx=0;entryDy=0;" edge="1" parent="WIyWlLk6GJQsqaUBKTNV-1" source="lURMLPrU_MeDdzC3iAlN-11" target="lURMLPrU_MeDdzC3iAlN-14">
          <mxGeometry relative="1" as="geometry">
            <mxPoint x="578" y="250" as="targetPoint" />
          </mxGeometry>
        </mxCell>
        <mxCell id="lURMLPrU_MeDdzC3iAlN-13" value="NO MATH, YES MONEY" style="edgeLabel;html=1;align=center;verticalAlign=middle;resizable=0;points=[];" vertex="1" connectable="0" parent="lURMLPrU_MeDdzC3iAlN-12">
          <mxGeometry x="0.1317" relative="1" as="geometry">
            <mxPoint as="offset" />
          </mxGeometry>
        </mxCell>
        <mxCell id="lURMLPrU_MeDdzC3iAlN-25" style="rounded=0;orthogonalLoop=1;jettySize=auto;html=1;exitX=0.25;exitY=1;exitDx=0;exitDy=0;entryX=0.5;entryY=0;entryDx=0;entryDy=0;" edge="1" parent="WIyWlLk6GJQsqaUBKTNV-1" source="lURMLPrU_MeDdzC3iAlN-11" target="lURMLPrU_MeDdzC3iAlN-27">
          <mxGeometry relative="1" as="geometry">
            <mxPoint x="390" y="410" as="targetPoint" />
          </mxGeometry>
        </mxCell>
        <mxCell id="lURMLPrU_MeDdzC3iAlN-26" value="YES MATH, &lt;br&gt;NO MONEY" style="edgeLabel;html=1;align=center;verticalAlign=middle;resizable=0;points=[];" vertex="1" connectable="0" parent="lURMLPrU_MeDdzC3iAlN-25">
          <mxGeometry x="0.0486" relative="1" as="geometry">
            <mxPoint as="offset" />
          </mxGeometry>
        </mxCell>
        <mxCell id="lURMLPrU_MeDdzC3iAlN-34" style="rounded=0;orthogonalLoop=1;jettySize=auto;html=1;exitX=0.75;exitY=1;exitDx=0;exitDy=0;entryX=0.5;entryY=0;entryDx=0;entryDy=0;" edge="1" parent="WIyWlLk6GJQsqaUBKTNV-1" source="lURMLPrU_MeDdzC3iAlN-11" target="lURMLPrU_MeDdzC3iAlN-36">
          <mxGeometry relative="1" as="geometry">
            <mxPoint x="620" y="400" as="targetPoint" />
          </mxGeometry>
        </mxCell>
        <mxCell id="lURMLPrU_MeDdzC3iAlN-35" value="YES, BOTH" style="edgeLabel;html=1;align=center;verticalAlign=middle;resizable=0;points=[];" vertex="1" connectable="0" parent="lURMLPrU_MeDdzC3iAlN-34">
          <mxGeometry x="-0.0185" relative="1" as="geometry">
            <mxPoint as="offset" />
          </mxGeometry>
        </mxCell>
        <mxCell id="lURMLPrU_MeDdzC3iAlN-43" style="rounded=0;orthogonalLoop=1;jettySize=auto;html=1;exitX=0.5;exitY=1;exitDx=0;exitDy=0;entryX=0.5;entryY=0;entryDx=0;entryDy=0;" edge="1" parent="WIyWlLk6GJQsqaUBKTNV-1" source="lURMLPrU_MeDdzC3iAlN-11" target="lURMLPrU_MeDdzC3iAlN-45">
          <mxGeometry relative="1" as="geometry">
            <mxPoint x="500" y="440" as="targetPoint" />
          </mxGeometry>
        </mxCell>
        <mxCell id="lURMLPrU_MeDdzC3iAlN-44" value="NO, NEITHER" style="edgeLabel;html=1;align=center;verticalAlign=middle;resizable=0;points=[];" vertex="1" connectable="0" parent="lURMLPrU_MeDdzC3iAlN-43">
          <mxGeometry x="0.0198" y="1" relative="1" as="geometry">
            <mxPoint as="offset" />
          </mxGeometry>
        </mxCell>
        <mxCell id="lURMLPrU_MeDdzC3iAlN-11" value="Do you like math and/or money?" style="rounded=0;whiteSpace=wrap;html=1;" vertex="1" parent="WIyWlLk6GJQsqaUBKTNV-1">
          <mxGeometry x="408" y="310" width="210" height="30" as="geometry" />
        </mxCell>
        <mxCell id="lURMLPrU_MeDdzC3iAlN-14" value="Economics&lt;br&gt;(yes, there&#39;s math, but don&#39;t worry; the kids who like it will go to grad school, leaving the&amp;nbsp;lucrative jobs for you)" style="rounded=0;whiteSpace=wrap;html=1;" vertex="1" parent="WIyWlLk6GJQsqaUBKTNV-1">
          <mxGeometry x="508" y="140" width="160" height="80" as="geometry" />
        </mxCell>
        <mxCell id="lURMLPrU_MeDdzC3iAlN-16" style="rounded=0;orthogonalLoop=1;jettySize=auto;html=1;exitX=0;exitY=0.5;exitDx=0;exitDy=0;entryX=0.5;entryY=1;entryDx=0;entryDy=0;strokeColor=default;" edge="1" parent="WIyWlLk6GJQsqaUBKTNV-1" source="lURMLPrU_MeDdzC3iAlN-15" target="lURMLPrU_MeDdzC3iAlN-18">
          <mxGeometry relative="1" as="geometry">
            <mxPoint x="140" y="300" as="targetPoint" />
          </mxGeometry>
        </mxCell>
        <mxCell id="lURMLPrU_MeDdzC3iAlN-17" value="FOR" style="edgeLabel;html=1;align=center;verticalAlign=middle;resizable=0;points=[];" vertex="1" connectable="0" parent="lURMLPrU_MeDdzC3iAlN-16">
          <mxGeometry x="0.3555" y="2" relative="1" as="geometry">
            <mxPoint x="12" y="-1" as="offset" />
          </mxGeometry>
        </mxCell>
        <mxCell id="lURMLPrU_MeDdzC3iAlN-20" style="rounded=0;orthogonalLoop=1;jettySize=auto;html=1;exitX=0.25;exitY=1;exitDx=0;exitDy=0;entryX=1;entryY=0.5;entryDx=0;entryDy=0;" edge="1" parent="WIyWlLk6GJQsqaUBKTNV-1" source="lURMLPrU_MeDdzC3iAlN-15" target="lURMLPrU_MeDdzC3iAlN-19">
          <mxGeometry relative="1" as="geometry" />
        </mxCell>
        <mxCell id="lURMLPrU_MeDdzC3iAlN-21" value="AGAINST" style="edgeLabel;html=1;align=center;verticalAlign=middle;resizable=0;points=[];" vertex="1" connectable="0" parent="lURMLPrU_MeDdzC3iAlN-20">
          <mxGeometry x="0.3103" y="1" relative="1" as="geometry">
            <mxPoint x="14" y="-4" as="offset" />
          </mxGeometry>
        </mxCell>
        <mxCell id="lURMLPrU_MeDdzC3iAlN-22" style="rounded=0;orthogonalLoop=1;jettySize=auto;html=1;exitX=0.5;exitY=1;exitDx=0;exitDy=0;entryX=0.5;entryY=0;entryDx=0;entryDy=0;" edge="1" parent="WIyWlLk6GJQsqaUBKTNV-1" source="lURMLPrU_MeDdzC3iAlN-15" target="lURMLPrU_MeDdzC3iAlN-24">
          <mxGeometry relative="1" as="geometry">
            <mxPoint x="230" y="400" as="targetPoint" />
          </mxGeometry>
        </mxCell>
        <mxCell id="lURMLPrU_MeDdzC3iAlN-23" value="AMBIVALENT" style="edgeLabel;html=1;align=center;verticalAlign=middle;resizable=0;points=[];" vertex="1" connectable="0" parent="lURMLPrU_MeDdzC3iAlN-22">
          <mxGeometry x="-0.0857" relative="1" as="geometry">
            <mxPoint as="offset" />
          </mxGeometry>
        </mxCell>
        <mxCell id="lURMLPrU_MeDdzC3iAlN-15" value="What are your feelings on safety?" style="rounded=0;whiteSpace=wrap;html=1;" vertex="1" parent="WIyWlLk6GJQsqaUBKTNV-1">
          <mxGeometry x="160" y="280" width="120" height="40" as="geometry" />
        </mxCell>
        <mxCell id="lURMLPrU_MeDdzC3iAlN-18" value="Engineering" style="rounded=0;whiteSpace=wrap;html=1;" vertex="1" parent="WIyWlLk6GJQsqaUBKTNV-1">
          <mxGeometry x="40" y="250" width="80" height="30" as="geometry" />
        </mxCell>
        <mxCell id="lURMLPrU_MeDdzC3iAlN-19" value="Chemistry" style="rounded=0;whiteSpace=wrap;html=1;" vertex="1" parent="WIyWlLk6GJQsqaUBKTNV-1">
          <mxGeometry x="30" y="340" width="80" height="30" as="geometry" />
        </mxCell>
        <mxCell id="lURMLPrU_MeDdzC3iAlN-24" value="Chemical Engineering" style="rounded=0;whiteSpace=wrap;html=1;" vertex="1" parent="WIyWlLk6GJQsqaUBKTNV-1">
          <mxGeometry x="180" y="410" width="80" height="40" as="geometry" />
        </mxCell>
        <mxCell id="lURMLPrU_MeDdzC3iAlN-28" style="rounded=0;orthogonalLoop=1;jettySize=auto;html=1;exitX=0.5;exitY=1;exitDx=0;exitDy=0;entryX=0.5;entryY=0;entryDx=0;entryDy=0;" edge="1" parent="WIyWlLk6GJQsqaUBKTNV-1" source="lURMLPrU_MeDdzC3iAlN-27" target="lURMLPrU_MeDdzC3iAlN-30">
          <mxGeometry relative="1" as="geometry">
            <mxPoint x="370" y="540" as="targetPoint" />
          </mxGeometry>
        </mxCell>
        <mxCell id="lURMLPrU_MeDdzC3iAlN-29" value="TROLLING THE &lt;br&gt;FUSSY PEDANTS" style="edgeLabel;html=1;align=center;verticalAlign=middle;resizable=0;points=[];" vertex="1" connectable="0" parent="lURMLPrU_MeDdzC3iAlN-28">
          <mxGeometry x="-0.3083" y="-2" relative="1" as="geometry">
            <mxPoint x="2" y="12" as="offset" />
          </mxGeometry>
        </mxCell>
        <mxCell id="lURMLPrU_MeDdzC3iAlN-31" style="rounded=0;orthogonalLoop=1;jettySize=auto;html=1;exitX=0;exitY=0.75;exitDx=0;exitDy=0;entryX=0.5;entryY=0;entryDx=0;entryDy=0;" edge="1" parent="WIyWlLk6GJQsqaUBKTNV-1" source="lURMLPrU_MeDdzC3iAlN-27" target="lURMLPrU_MeDdzC3iAlN-33">
          <mxGeometry relative="1" as="geometry">
            <mxPoint x="160" y="520" as="targetPoint" />
          </mxGeometry>
        </mxCell>
        <mxCell id="lURMLPrU_MeDdzC3iAlN-32" value="GETTING TO BE A&lt;br style=&quot;border-color: var(--border-color);&quot;&gt;FUSSY PEDANT" style="edgeLabel;html=1;align=center;verticalAlign=middle;resizable=0;points=[];" vertex="1" connectable="0" parent="lURMLPrU_MeDdzC3iAlN-31">
          <mxGeometry x="-0.0295" y="1" relative="1" as="geometry">
            <mxPoint as="offset" />
          </mxGeometry>
        </mxCell>
        <mxCell id="lURMLPrU_MeDdzC3iAlN-27" value="What exactly do you enjoy about math?" style="rounded=0;whiteSpace=wrap;html=1;" vertex="1" parent="WIyWlLk6GJQsqaUBKTNV-1">
          <mxGeometry x="290" y="430" width="80" height="60" as="geometry" />
        </mxCell>
        <mxCell id="lURMLPrU_MeDdzC3iAlN-30" value="Physics" style="rounded=0;whiteSpace=wrap;html=1;" vertex="1" parent="WIyWlLk6GJQsqaUBKTNV-1">
          <mxGeometry x="280" y="570" width="68" height="30" as="geometry" />
        </mxCell>
        <mxCell id="lURMLPrU_MeDdzC3iAlN-33" value="Mathematics" style="rounded=0;whiteSpace=wrap;html=1;" vertex="1" parent="WIyWlLk6GJQsqaUBKTNV-1">
          <mxGeometry x="100" y="545" width="98" height="30" as="geometry" />
        </mxCell>
        <mxCell id="lURMLPrU_MeDdzC3iAlN-37" style="rounded=0;orthogonalLoop=1;jettySize=auto;html=1;exitX=0.5;exitY=1;exitDx=0;exitDy=0;entryX=0.5;entryY=0;entryDx=0;entryDy=0;" edge="1" parent="WIyWlLk6GJQsqaUBKTNV-1" source="lURMLPrU_MeDdzC3iAlN-36" target="lURMLPrU_MeDdzC3iAlN-39">
          <mxGeometry relative="1" as="geometry">
            <mxPoint x="580" y="530" as="targetPoint" />
          </mxGeometry>
        </mxCell>
        <mxCell id="lURMLPrU_MeDdzC3iAlN-38" value="OVERT" style="edgeLabel;html=1;align=center;verticalAlign=middle;resizable=0;points=[];" vertex="1" connectable="0" parent="lURMLPrU_MeDdzC3iAlN-37">
          <mxGeometry x="0.0379" y="-2" relative="1" as="geometry">
            <mxPoint as="offset" />
          </mxGeometry>
        </mxCell>
        <mxCell id="lURMLPrU_MeDdzC3iAlN-40" style="rounded=0;orthogonalLoop=1;jettySize=auto;html=1;exitX=0.75;exitY=1;exitDx=0;exitDy=0;entryX=0.5;entryY=0;entryDx=0;entryDy=0;" edge="1" parent="WIyWlLk6GJQsqaUBKTNV-1" source="lURMLPrU_MeDdzC3iAlN-36" target="lURMLPrU_MeDdzC3iAlN-42">
          <mxGeometry relative="1" as="geometry">
            <mxPoint x="700" y="540" as="targetPoint" />
          </mxGeometry>
        </mxCell>
        <mxCell id="lURMLPrU_MeDdzC3iAlN-41" value="INDIRECT" style="edgeLabel;html=1;align=center;verticalAlign=middle;resizable=0;points=[];" vertex="1" connectable="0" parent="lURMLPrU_MeDdzC3iAlN-40">
          <mxGeometry x="-0.1077" y="-1" relative="1" as="geometry">
            <mxPoint y="-1" as="offset" />
          </mxGeometry>
        </mxCell>
        <mxCell id="lURMLPrU_MeDdzC3iAlN-36" value="Do you prefer to perform overt, immediate evil, or slow indirect evil" style="rounded=0;whiteSpace=wrap;html=1;" vertex="1" parent="WIyWlLk6GJQsqaUBKTNV-1">
          <mxGeometry x="588" y="410" width="112" height="70" as="geometry" />
        </mxCell>
        <mxCell id="lURMLPrU_MeDdzC3iAlN-39" value="Finance" style="rounded=0;whiteSpace=wrap;html=1;" vertex="1" parent="WIyWlLk6GJQsqaUBKTNV-1">
          <mxGeometry x="600" y="550" width="68" height="30" as="geometry" />
        </mxCell>
        <mxCell id="lURMLPrU_MeDdzC3iAlN-42" value="Computer Science" style="rounded=0;whiteSpace=wrap;html=1;" vertex="1" parent="WIyWlLk6GJQsqaUBKTNV-1">
          <mxGeometry x="690" y="545" width="68" height="40" as="geometry" />
        </mxCell>
        <mxCell id="lURMLPrU_MeDdzC3iAlN-46" style="rounded=0;orthogonalLoop=1;jettySize=auto;html=1;exitX=0.25;exitY=1;exitDx=0;exitDy=0;entryX=0.5;entryY=0;entryDx=0;entryDy=0;" edge="1" parent="WIyWlLk6GJQsqaUBKTNV-1" source="lURMLPrU_MeDdzC3iAlN-45" target="lURMLPrU_MeDdzC3iAlN-48">
          <mxGeometry relative="1" as="geometry">
            <mxPoint x="420" y="590" as="targetPoint" />
            <Array as="points">
              <mxPoint x="400" y="560" />
            </Array>
          </mxGeometry>
        </mxCell>
        <mxCell id="lURMLPrU_MeDdzC3iAlN-47" value="TO SAVE THE&lt;br&gt;PLANET" style="edgeLabel;html=1;align=center;verticalAlign=middle;resizable=0;points=[];" vertex="1" connectable="0" parent="lURMLPrU_MeDdzC3iAlN-46">
          <mxGeometry x="0.0009" y="-4" relative="1" as="geometry">
            <mxPoint y="-1" as="offset" />
          </mxGeometry>
        </mxCell>
        <mxCell id="lURMLPrU_MeDdzC3iAlN-50" style="rounded=0;orthogonalLoop=1;jettySize=auto;html=1;exitX=0.5;exitY=1;exitDx=0;exitDy=0;entryX=0.25;entryY=0;entryDx=0;entryDy=0;" edge="1" parent="WIyWlLk6GJQsqaUBKTNV-1" source="lURMLPrU_MeDdzC3iAlN-45" target="lURMLPrU_MeDdzC3iAlN-52">
          <mxGeometry relative="1" as="geometry">
            <mxPoint x="520" y="610" as="targetPoint" />
          </mxGeometry>
        </mxCell>
        <mxCell id="lURMLPrU_MeDdzC3iAlN-51" value="CURIOSITY" style="edgeLabel;html=1;align=center;verticalAlign=middle;resizable=0;points=[];" vertex="1" connectable="0" parent="lURMLPrU_MeDdzC3iAlN-50">
          <mxGeometry x="0.0307" y="-2" relative="1" as="geometry">
            <mxPoint x="14" y="18" as="offset" />
          </mxGeometry>
        </mxCell>
        <mxCell id="lURMLPrU_MeDdzC3iAlN-53" style="rounded=0;orthogonalLoop=1;jettySize=auto;html=1;exitX=0.75;exitY=1;exitDx=0;exitDy=0;entryX=0.75;entryY=0;entryDx=0;entryDy=0;" edge="1" parent="WIyWlLk6GJQsqaUBKTNV-1" source="lURMLPrU_MeDdzC3iAlN-45" target="lURMLPrU_MeDdzC3iAlN-52">
          <mxGeometry relative="1" as="geometry">
            <Array as="points">
              <mxPoint x="590" y="620" />
            </Array>
          </mxGeometry>
        </mxCell>
        <mxCell id="lURMLPrU_MeDdzC3iAlN-54" value="WAIT, I THOUGHT&lt;br&gt;&quot;STEM&quot; HAD TO DO&lt;br&gt;WITH PLANTS" style="edgeLabel;html=1;align=center;verticalAlign=middle;resizable=0;points=[];" vertex="1" connectable="0" parent="lURMLPrU_MeDdzC3iAlN-53">
          <mxGeometry x="-0.3275" y="-1" relative="1" as="geometry">
            <mxPoint x="44" y="60" as="offset" />
          </mxGeometry>
        </mxCell>
        <mxCell id="lURMLPrU_MeDdzC3iAlN-45" value="So, why do you want to major in a STEM field?" style="rounded=0;whiteSpace=wrap;html=1;" vertex="1" parent="WIyWlLk6GJQsqaUBKTNV-1">
          <mxGeometry x="430" y="430" width="90" height="60" as="geometry" />
        </mxCell>
        <mxCell id="lURMLPrU_MeDdzC3iAlN-48" value="Environmental Science" style="rounded=0;whiteSpace=wrap;html=1;" vertex="1" parent="WIyWlLk6GJQsqaUBKTNV-1">
          <mxGeometry x="308" y="650" width="100" height="40" as="geometry" />
        </mxCell>
        <mxCell id="lURMLPrU_MeDdzC3iAlN-52" value="Biology" style="rounded=0;whiteSpace=wrap;html=1;" vertex="1" parent="WIyWlLk6GJQsqaUBKTNV-1">
          <mxGeometry x="450" y="670" width="80" height="40" as="geometry" />
        </mxCell>
      </root>
    </mxGraphModel>
  </diagram>
</mxfile>
